<svg width="26" height="26" viewBox="0 0 26 26" fill="none" xmlns="http://www.w3.org/2000/svg">
<path d="M12.7474 18.0837C14.1619 18.0837 15.5184 17.5218 16.5186 16.5216C17.5188 15.5214 18.0807 14.1648 18.0807 12.7503C18.0807 11.3358 17.5188 9.97928 16.5186 8.97909C15.5184 7.9789 14.1619 7.41699 12.7474 7.41699C11.3329 7.41699 9.97635 7.9789 8.97616 8.97909C7.97597 9.97928 7.41406 11.3358 7.41406 12.7503C7.41406 14.1648 7.97597 15.5214 8.97616 16.5216C9.97635 17.5218 11.3329 18.0837 12.7474 18.0837Z" stroke="white" stroke-width="1.5" stroke-linecap="round" stroke-linejoin="round"/>
<path d="M0.75 18.0833V7.41667C0.75 5.64856 1.45238 3.95286 2.70262 2.70262C3.95286 1.45238 5.64856 0.75 7.41667 0.75H18.0833C19.8514 0.75 21.5471 1.45238 22.7974 2.70262C24.0476 3.95286 24.75 5.64856 24.75 7.41667V18.0833C24.75 19.8514 24.0476 21.5471 22.7974 22.7974C21.5471 24.0476 19.8514 24.75 18.0833 24.75H7.41667C5.64856 24.75 3.95286 24.0476 2.70262 22.7974C1.45238 21.5471 0.75 19.8514 0.75 18.0833Z" stroke="white" stroke-width="1.5"/>
<path d="M20.0781 5.42604L20.0881 5.41504" stroke="white" stroke-width="1.5" stroke-linecap="round" stroke-linejoin="round"/>
</svg>
