<svg width="26" height="26" viewBox="0 0 26 26" fill="none" xmlns="http://www.w3.org/2000/svg">
<path fill-rule="evenodd" clip-rule="evenodd" d="M17.2408 12.4662V13.1204H18.4783C18.7991 13.1204 19.0606 13.3821 19.0606 13.7029C19.0606 14.0241 18.7997 14.2863 18.4783 14.2863H16.6574C16.3359 14.2863 16.075 14.0241 16.075 13.7029V10.0635C16.075 9.74267 16.3364 9.48047 16.6574 9.48047H18.4783C18.7995 9.48047 19.0606 9.74255 19.0606 10.0635C19.0606 10.3848 18.7998 10.6467 18.4783 10.6467H17.2408V11.3008H18.4783C18.7997 11.3008 19.0606 11.5625 19.0606 11.8837C19.0606 12.2047 18.7993 12.4662 18.4783 12.4662L17.2408 12.4662ZM12.9057 11.7647V13.7029C12.9057 14.0249 12.6449 14.2863 12.3228 14.2863C12.001 14.2863 11.7398 14.0246 11.7398 13.7029V10.0635C11.7398 9.81239 11.9004 9.58943 12.1389 9.51044C12.1982 9.49078 12.2605 9.48047 12.323 9.48047C12.5058 9.48047 12.6811 9.56735 12.7895 9.7149L14.4697 12.0031V10.0635C14.4697 9.74233 14.7314 9.48047 15.0526 9.48047C15.374 9.48047 15.6356 9.74215 15.6356 10.0635V13.7029C15.6356 13.9548 15.4754 14.1768 15.2364 14.2562C15.1769 14.276 15.1148 14.2863 15.0521 14.2863C14.8692 14.2863 14.6941 14.1997 14.5856 14.0521L12.9057 11.7647ZM11.2543 13.7029C11.2543 14.0244 10.9936 14.2863 10.6718 14.2863C10.35 14.2863 10.0891 14.0246 10.0891 13.7029V10.0635C10.0891 9.74229 10.3505 9.48047 10.6718 9.48047C10.993 9.48047 11.2543 9.74249 11.2543 10.0635V13.7029ZM8.03227 13.1204H9.26919C9.5908 13.1204 9.85213 13.3812 9.85213 13.7029C9.85213 14.025 9.59143 14.2863 9.26919 14.2863H7.44962C7.12781 14.2863 6.86719 14.0245 6.86719 13.7029V10.0635C6.86719 9.74243 7.12836 9.48047 7.44962 9.48047C7.77098 9.48047 8.03226 9.74229 8.03226 10.0635L8.03227 13.1204Z" fill="white"/>
<path fill-rule="evenodd" clip-rule="evenodd" d="M25.7009 4.8568C25.7028 3.52371 25.1644 2.31626 24.2922 1.44169C23.4197 0.566815 22.2132 0.0246503 20.8794 0.0224901V0.0214204H20.8787V0.0224901L4.85763 3.89655e-06C3.52432 -0.00167145 2.31656 0.537003 1.44185 1.40929C0.566795 2.2819 0.0245499 3.48853 0.0225709 4.8223L3.80294e-06 20.8444C-0.00165136 22.1778 0.537083 23.3857 1.40937 24.2605C2.28199 25.1357 3.48864 25.6781 4.82223 25.6799L20.8429 25.7026C22.1764 25.7044 23.3841 25.1658 24.2589 24.2934C25.134 23.4207 25.6763 22.2138 25.6784 20.8796L25.7009 4.85758H25.702V4.85679L25.7009 4.8568ZM12.855 4.03878C15.4438 4.03878 17.7945 4.89611 19.5001 6.28025C21.2213 7.67702 22.2873 9.60978 22.2873 11.745C22.2873 12.6023 22.121 13.4176 21.781 14.209C21.5123 14.8344 21.1353 15.4432 20.6464 16.0448H20.649L20.6024 16.0985C20.4913 16.2333 20.3745 16.3678 20.252 16.5019C19.463 17.409 18.2895 18.3903 17.1049 19.2659C15.3507 20.5624 13.5573 21.636 12.9607 21.8875C12.2426 22.1898 11.9367 22.0057 11.8113 21.7076C11.7216 21.4946 11.7641 21.2556 11.7891 21.1152L11.7925 21.0963L11.7928 21.0963L11.9226 20.3146C11.9367 20.2069 11.9506 20.0727 11.9509 19.9434C11.9511 19.8256 11.9409 19.7121 11.9095 19.6329L11.9091 19.633C11.8912 19.5888 11.836 19.5452 11.7643 19.5051C11.6299 19.4299 11.4523 19.3792 11.3022 19.3469C9.04351 19.0446 7.0765 18.0996 5.67396 16.7567C4.26332 15.4061 3.42175 13.654 3.42175 11.745C3.42175 9.60984 4.48794 7.67705 6.20921 6.28033C7.91503 4.89615 10.2661 4.03878 12.855 4.03878Z" fill="white"/>
</svg>
