<svg width="32" height="18" viewBox="0 0 32 18" fill="none" xmlns="http://www.w3.org/2000/svg">
<rect x="0.5" y="0.5" width="31" height="17" rx="8.5" stroke="#003300"/>
<path d="M23.8317 9.33267C23.8317 9.33267 23.8406 9.32466 23.8435 9.32066C23.8553 9.31066 23.8642 9.30065 23.876 9.29065C23.876 9.28664 23.8819 9.28464 23.8849 9.28064C23.8967 9.26863 23.9055 9.25863 23.9144 9.24662C23.9144 9.24462 23.9173 9.24262 23.9203 9.24062C23.9292 9.22861 23.941 9.21461 23.9469 9.2006C23.9469 9.2006 23.9469 9.1986 23.9469 9.1966C23.9557 9.18259 23.9646 9.16858 23.9705 9.15258C23.9705 9.15258 23.9705 9.14857 23.9705 9.14657C23.9764 9.13257 23.9823 9.11656 23.9882 9.10255C23.9882 9.09855 23.9882 9.09455 23.9882 9.08854C23.9911 9.07654 23.9941 9.06453 23.997 9.05053C23.997 9.03252 24 9.01651 24 8.9985C24 8.98049 24 8.96448 23.997 8.94647C23.997 8.93247 23.9911 8.92046 23.9882 8.90845C23.9882 8.90445 23.9882 8.90045 23.9882 8.89645C23.9823 8.88044 23.9764 8.86643 23.9705 8.85243V8.84842C23.9646 8.83242 23.9557 8.81841 23.9469 8.8044C23.9469 8.8044 23.9469 8.8024 23.9469 8.8004C23.938 8.78639 23.9292 8.77239 23.9173 8.76038C23.9173 8.76038 23.9173 8.75638 23.9144 8.75438C23.9055 8.74237 23.8937 8.73037 23.8819 8.71836C23.8819 8.71636 23.876 8.71236 23.8731 8.71036C23.8613 8.70035 23.8494 8.68834 23.8376 8.67834C23.8347 8.67434 23.8317 8.67234 23.8258 8.66833C23.8111 8.65433 23.7934 8.64232 23.7756 8.63032L20.1299 6.15308C19.8288 5.94897 19.3387 5.94897 19.0376 6.15308C18.7365 6.35718 18.7365 6.68934 19.0376 6.89545L21.3697 8.47624H8.77343C8.34539 8.47624 8 8.71036 8 9.0005C8 9.29065 8.34539 9.52476 8.77343 9.52476H21.3668L19.0347 11.1056C18.7336 11.3097 18.7336 11.6418 19.0347 11.8459C19.1852 11.948 19.383 12 19.5808 12C19.7786 12 19.9764 11.948 20.1269 11.8459L23.7815 9.36868C23.7815 9.36868 23.7875 9.36468 23.7875 9.36268C23.8022 9.35268 23.817 9.34067 23.8317 9.33067V9.33267Z" fill="#003300"/>
</svg>
