<svg width="20" height="18" viewBox="0 0 20 18" fill="none" xmlns="http://www.w3.org/2000/svg">
<path d="M4.47005 18C1.56682 18 0 15.5477 0 11.3297C0 6.32697 2.30415 2.55041 6.91244 0L8.47926 3.18801C5.48387 4.90463 3.96313 7.01362 3.96313 10.1526C4.14747 10.1035 4.28571 10.1035 4.47005 10.1035C6.45161 10.1035 8.15668 11.5259 8.15668 13.8801C8.15668 16.4305 6.63595 18 4.47005 18ZM15.9908 18C13.0876 18 11.5207 15.5477 11.5207 11.3297C11.5207 6.32697 13.8249 2.55041 18.4332 0L20 3.18801C17.0046 4.90463 15.4839 7.01362 15.4839 10.1526C15.6682 10.1035 15.8065 10.1035 15.9908 10.1035C17.9724 10.1035 19.6774 11.5259 19.6774 13.8801C19.6774 16.4305 18.1106 18 15.9908 18Z" fill="#003300"/>
</svg>
