<svg width="20" height="19" viewBox="0 0 20 19" fill="none" xmlns="http://www.w3.org/2000/svg">
<path d="M19.4616 0.371329C18.8107 -0.179415 17.8281 -0.109718 17.2664 0.52849L9.16405 9.72169L7.24894 7.54741C6.68723 6.9092 5.70318 6.8395 5.05366 7.39025C4.40275 7.94099 4.33166 8.90445 4.89337 9.54266L7.98627 13.0521C8.28176 13.3869 8.71106 13.581 9.16405 13.581C9.61705 13.581 10.0463 13.3883 10.3418 13.0521L19.6205 2.52374C20.1822 1.88553 20.1112 0.922074 19.4602 0.371329H19.4616Z" fill="#7E997E"/>
<path d="M16.8095 9.61378C16.3802 9.61378 16.0318 9.95543 16.0318 10.3763C16.0318 12.2718 15.2791 14.0539 13.9118 15.3932C12.5458 16.7338 10.7283 17.4718 8.79504 17.4718C4.80452 17.4718 1.5569 14.289 1.5569 10.375C1.5569 8.47949 2.30957 6.69743 3.67691 5.35815C5.04286 4.0175 6.86041 3.27953 8.79364 3.27953C9.19507 3.27953 9.59649 3.31233 9.98955 3.3752C10.4133 3.44489 10.8147 3.16337 10.8844 2.74792C10.9541 2.33247 10.6683 1.93889 10.2446 1.87056C9.76793 1.79266 9.28009 1.75439 8.79364 1.75439C6.44365 1.75439 4.23584 2.65089 2.57579 4.27989C0.914349 5.90753 0 8.07224 0 10.3763C0 15.1308 3.94453 18.9983 8.79364 18.9983C11.1436 18.9983 13.3515 18.1018 15.0115 16.4728C16.6729 14.8452 17.5887 12.6805 17.5887 10.3763C17.5887 9.95543 17.2402 9.61378 16.8109 9.61378H16.8095Z" fill="#7E997E"/>
</svg>
