<svg width="6" height="16" viewBox="0 0 6 16" fill="none" xmlns="http://www.w3.org/2000/svg">
<path d="M3.33267 0.168266C3.33267 0.168266 3.32466 0.159411 3.32066 0.156459C3.31065 0.14465 3.30065 0.135794 3.29064 0.123986C3.28664 0.123986 3.28464 0.118081 3.28064 0.115129C3.26863 0.103321 3.25863 0.0944655 3.24662 0.0856094C3.24462 0.0856094 3.24262 0.0826572 3.24062 0.0797052C3.22861 0.0708491 3.21461 0.0590409 3.2006 0.0531369C3.2006 0.0531369 3.1986 0.0531369 3.1966 0.0531369C3.18259 0.0442808 3.16858 0.0354253 3.15258 0.0295212C3.15258 0.0295212 3.14857 0.0295212 3.14657 0.0295212C3.13257 0.0236172 3.11656 0.0177127 3.10255 0.0118086C3.09855 0.0118086 3.09455 0.0118086 3.08854 0.0118086C3.07654 0.00885661 3.06453 0.00590494 3.05052 0.00295292C3.03252 0.00295292 3.01651 2.5685e-07 2.9985 2.57637e-07C2.98049 2.58425e-07 2.96448 8.89812e-07 2.94647 0.00295292C2.93247 0.00295292 2.92046 0.00885662 2.90845 0.0118086C2.90445 0.0118086 2.90045 0.0118086 2.89645 0.0118086C2.88044 0.0177127 2.86643 0.0236172 2.85243 0.0295212L2.84842 0.0295212C2.83242 0.0354253 2.81841 0.0442808 2.8044 0.0531369C2.8044 0.0531369 2.8024 0.0531369 2.8004 0.0531369C2.78639 0.061993 2.77239 0.0708497 2.76038 0.0826579C2.76038 0.0826579 2.75638 0.0826574 2.75438 0.0856094C2.74237 0.0944655 2.73036 0.106274 2.71836 0.118082C2.71636 0.118082 2.71236 0.123986 2.71035 0.126938C2.70035 0.138746 2.68834 0.150554 2.67834 0.162362C2.67434 0.165314 2.67234 0.168266 2.66833 0.17417C2.65433 0.18893 2.64232 0.206643 2.63031 0.224355L0.153076 3.87011C-0.051026 4.17122 -0.051026 4.66126 0.153076 4.96236C0.357178 5.26347 0.689344 5.26347 0.895447 4.96236L2.47624 2.63026L2.47624 15.2266C2.47624 15.6546 2.71036 16 3.0005 16C3.29065 16 3.52476 15.6546 3.52476 15.2266L3.52476 2.63321L5.10555 4.96531C5.30965 5.26642 5.64182 5.26642 5.84592 4.96531C5.94797 4.81476 6 4.61697 6 4.41919C6 4.2214 5.94797 4.02362 5.84592 3.87306L3.36868 0.218451C3.36868 0.218451 3.36468 0.212547 3.36268 0.212547C3.35268 0.197787 3.34067 0.183026 3.33066 0.168266L3.33267 0.168266Z" fill="black"/>
</svg>
