<svg width="22" height="17" viewBox="0 0 22 17" fill="none" xmlns="http://www.w3.org/2000/svg">
<path d="M2.0625 0C0.923828 0 0 0.951823 0 2.125C0 2.79349 0.305078 3.42214 0.825 3.825L10.175 11.05C10.6648 11.4263 11.3352 11.4263 11.825 11.05L21.175 3.825C21.6949 3.42214 22 2.79349 22 2.125C22 0.951823 21.0762 0 19.9375 0H2.0625ZM0 4.95833V14.1667C0 15.7294 1.2332 17 2.75 17H19.25C20.7668 17 22 15.7294 22 14.1667V4.95833L12.65 12.1833C11.6703 12.9404 10.3297 12.9404 9.35 12.1833L0 4.95833Z" fill="#003300"/>
</svg>
