<svg width="200" height="41" viewBox="0 0 200 41" fill="none" xmlns="http://www.w3.org/2000/svg">
<g clip-path="url(#clip0_238_1049)">
<path d="M25.6389 13.6202C25.4537 13.079 25.4537 12.4927 25.6389 11.9556L29.0695 1.83683C27.7449 1.23823 26.3464 0.770829 24.8902 0.459229L20.7109 12.792L25.6553 27.3798C25.8363 27.921 25.8363 28.5073 25.6553 29.0444L21.6118 40.9754C23.323 40.8893 24.9725 40.5941 26.5479 40.1185L30.5791 28.2121L25.6389 13.6243V13.6202Z" fill="#FFFDF8"/>
<path d="M5.31869 13.6202C5.1377 13.079 5.1377 12.4927 5.31869 11.9556L7.89371 4.36243C3.0892 8.11393 0 13.9441 0 20.5C0 27.0559 2.92466 32.5786 7.50704 36.3383L10.2631 28.2121L5.31869 13.6243V13.6202Z" fill="#FFFDF8"/>
<path d="M41.1349 20.5C41.1349 14.1204 38.2103 8.42144 33.6279 4.66174L30.876 12.7879L35.8203 27.3757C36.0054 27.9169 36.0054 28.5032 35.8203 29.0403L33.2453 36.6376C38.0498 32.8861 41.139 27.0518 41.139 20.5H41.1349Z" fill="#FFFDF8"/>
<path d="M15.4787 13.6203C15.2977 13.0791 15.2977 12.4928 15.4787 11.9557L19.5222 0.0246582C17.811 0.110758 16.1615 0.405958 14.5861 0.881558L10.5508 12.788L15.4951 27.3758C15.6803 27.917 15.6803 28.5033 15.4951 29.0404L12.0645 39.1633C13.3891 39.7619 14.7876 40.2293 16.2438 40.5409L20.4231 28.2081L15.4787 13.6203Z" fill="#FFFDF8"/>
<path d="M55.9716 27.2445C54.6923 27.2445 53.5735 26.9452 52.6068 26.3466C51.6443 25.748 50.8997 24.9403 50.3691 23.9235C49.8385 22.9067 49.5752 21.7587 49.5752 20.4836C49.5752 19.2085 49.8385 18.0605 50.3691 17.0437C50.8997 16.0269 51.6443 15.2192 52.6068 14.6206C53.5694 14.022 54.6923 13.7227 55.9716 13.7227C57.2509 13.7227 58.3862 14.022 59.3364 14.6206C60.2866 15.2192 61.027 16.0269 61.5577 17.0437C62.0883 18.0605 62.3516 19.2085 62.3516 20.4836C62.3516 21.7587 62.0883 22.9067 61.5577 23.9235C61.027 24.9403 60.2866 25.748 59.3364 26.3466C58.3862 26.9452 57.2673 27.2445 55.9716 27.2445ZM55.9716 26.3753C57.1481 26.3753 58.0571 25.8628 58.7029 24.8378C59.3488 23.8128 59.6737 22.3614 59.6737 20.4836C59.6737 18.6058 59.3488 17.1503 58.7029 16.1253C58.0571 15.1003 57.1439 14.5878 55.9716 14.5878C54.7993 14.5878 53.8861 15.1003 53.2485 16.1253C52.6068 17.1503 52.2901 18.6017 52.2901 20.4836C52.2901 22.3655 52.6109 23.8169 53.2485 24.8378C53.8861 25.8628 54.7952 26.3753 55.9716 26.3753Z" fill="#FFFDF8"/>
<path d="M64.5976 26.8591V20.2909C64.5976 19.7128 64.5154 19.2454 64.3549 18.8887C64.1945 18.532 63.8202 18.3557 63.2402 18.3557H63.0469V17.7776H65.371C66.0538 17.7776 66.5186 17.958 66.7572 18.3188C66.9958 18.6796 67.1151 19.3356 67.1151 20.2909V26.8591H64.5935H64.5976ZM65.8564 16.7362C65.3669 16.7362 65.0008 16.5886 64.7622 16.2934C64.5236 15.9982 64.4043 15.6579 64.4043 15.2684C64.4043 14.9322 64.5072 14.6698 64.7128 14.4771C64.9185 14.2844 65.1735 14.1901 65.4697 14.1901C65.9592 14.1901 66.3253 14.3377 66.5639 14.6329C66.8025 14.9281 66.9217 15.2684 66.9217 15.6579C66.9217 15.9941 66.8189 16.2565 66.6132 16.4492C66.4076 16.6419 66.1525 16.7403 65.8564 16.7403V16.7362Z" fill="#FFFDF8"/>
<path d="M72.6191 27.0518C71.7388 27.0518 71.0519 26.814 70.5541 26.3343C70.0564 25.8587 69.8096 25.1576 69.8096 24.231V18.6468H68.6455V17.7776H69.8096V16.0392L70.7804 14.8789H72.3312V17.7776H74.4619V18.6468H72.3312V24.3458C72.3312 25.0674 72.4175 25.5553 72.5944 25.8054C72.7672 26.0555 73.0181 26.1826 73.3389 26.1826C73.5446 26.1826 73.7421 26.158 73.9313 26.1047C74.1164 26.0514 74.285 25.994 74.4249 25.9325C74.5648 25.8546 74.717 25.7644 74.8692 25.6619L75.1406 26.2031C74.972 26.3466 74.7704 26.486 74.5401 26.6295C74.3344 26.732 74.0711 26.8304 73.7544 26.9206C73.4377 27.0108 73.0592 27.0559 72.6191 27.0559V27.0518Z" fill="#FFFDF8"/>
<path d="M78.958 27.0517C77.8843 27.0517 77.0699 26.8098 76.5063 26.326C75.9428 25.8422 75.6631 25.2149 75.6631 24.4441C75.6631 23.825 75.8071 23.3002 76.0991 22.8697C76.3912 22.4392 76.9177 22.1112 77.6787 21.8857C78.4397 21.6602 79.5133 21.5454 80.8954 21.5454H81.1874C81.1874 20.3851 81.027 19.5815 80.7021 19.1305C80.3771 18.6795 79.9246 18.454 79.3446 18.454C78.9045 18.454 78.5096 18.5647 78.1641 18.782C77.8144 18.9993 77.5635 19.4708 77.4072 20.1924H76.3418C76.3418 19.8562 76.3624 19.5159 76.4076 19.1674C76.4529 18.8189 76.5927 18.5196 76.8231 18.2613C77.0534 18.003 77.4401 17.8267 77.9748 17.7283C78.5096 17.634 79.0937 17.5848 79.7272 17.5848C80.9941 17.5848 81.9731 17.921 82.6642 18.5893C83.3552 19.2576 83.7008 20.2785 83.7008 21.6438V26.859H82.0513L81.3726 25.9898H81.2738C81.208 26.0923 81.1299 26.1907 81.0311 26.2809C80.9324 26.3711 80.8337 26.4572 80.7309 26.531C80.5499 26.6704 80.3113 26.7934 80.0151 26.8959C79.7189 26.9984 79.3611 27.0517 78.9497 27.0517H78.958ZM79.538 26.0882C79.8341 26.0882 80.085 26.0226 80.2825 25.8955C80.484 25.7684 80.6527 25.6249 80.7967 25.4691C80.9653 25.2887 81.0928 25.0755 81.1833 24.8336V22.4187H80.8913C79.9616 22.4187 79.2911 22.5868 78.8839 22.9189C78.4767 23.2551 78.2751 23.7635 78.2751 24.4441C78.2751 24.9853 78.3862 25.3953 78.6124 25.67C78.8387 25.9488 79.1472 26.0841 79.5338 26.0841L79.538 26.0882Z" fill="#FFFDF8"/>
<path d="M164.707 26.859V16.6213C164.707 16.0432 164.625 15.5758 164.464 15.2191C164.304 14.8624 163.93 14.6861 163.35 14.6861H163.156V14.108H165.48C166.163 14.108 166.628 14.2884 166.867 14.6492C167.105 15.01 167.224 15.666 167.224 16.6213V25.9898H173.913V26.859H164.707Z" fill="#FFFDF8"/>
<path d="M175.442 26.8591V20.2909C175.442 19.7128 175.364 19.2454 175.2 18.8887C175.039 18.532 174.669 18.3557 174.085 18.3557H173.892V17.7776H176.22C176.907 17.7776 177.367 17.958 177.606 18.3188C177.845 18.6796 177.964 19.3356 177.964 20.2909V26.8591H175.446H175.442ZM176.701 16.7362C176.212 16.7362 175.845 16.5886 175.607 16.2934C175.368 15.9982 175.249 15.6579 175.249 15.2684C175.249 14.9322 175.352 14.6698 175.558 14.4771C175.763 14.2844 176.014 14.1901 176.314 14.1901C176.804 14.1901 177.17 14.3377 177.409 14.6329C177.647 14.9281 177.766 15.2684 177.766 15.6579C177.766 15.9941 177.664 16.2565 177.458 16.4492C177.252 16.6419 176.997 16.7403 176.701 16.7403V16.7362Z" fill="#FFFDF8"/>
<path d="M180.638 26.8591V20.2909C180.638 19.7128 180.559 19.2454 180.407 18.8887C180.251 18.532 179.885 18.3557 179.301 18.3557H179.107V17.7776H181.028C181.469 17.7776 181.814 17.8309 182.065 17.9416C182.316 18.0523 182.513 18.2327 182.657 18.491C182.892 18.2696 183.221 18.0646 183.657 17.8719C184.089 17.6792 184.702 17.5808 185.487 17.5808C186.701 17.5808 187.618 17.8596 188.239 18.4213C188.86 18.9789 189.169 19.885 189.169 21.1355V26.855H186.647V21.1191C186.647 20.1802 186.475 19.516 186.125 19.1306C185.775 18.7452 185.335 18.5525 184.809 18.5525C184.397 18.5525 184.035 18.6099 183.731 18.7247C183.427 18.8395 183.192 18.983 183.023 19.1511L183.081 19.4217C183.106 19.5119 183.126 19.6226 183.139 19.7497C183.151 19.8768 183.159 20.0203 183.159 20.1761V26.8591H180.638Z" fill="#FFFDF8"/>
<path d="M198.663 27.0518C198.12 27.0518 197.61 26.937 197.133 26.7115C196.656 26.486 196.203 26.0842 195.775 25.502L193.916 23.0666V26.8509H191.395V16.6132C191.395 16.0351 191.312 15.5677 191.152 15.211C190.991 14.8543 190.621 14.678 190.037 14.678H189.844V14.0999H192.172C192.855 14.0999 193.32 14.2803 193.558 14.6411C193.797 15.0019 193.916 15.6579 193.916 16.6132V22.1195L196.261 19.2618C196.66 18.7862 197.055 18.4172 197.441 18.163C197.828 17.9047 198.367 17.7776 199.05 17.7776H199.436V18.2819C198.675 18.2819 198.03 18.6058 197.499 19.2454L195.619 21.525L198.198 24.9239C198.535 25.3749 198.848 25.7152 199.148 25.9489C199.445 26.1826 199.728 26.3302 200 26.3917V26.855C199.897 26.9042 199.708 26.9493 199.436 26.9903C199.165 27.0272 198.906 27.0477 198.663 27.0477V27.0518Z" fill="#FFFDF8"/>
<path d="M96.752 27.0927C95.4275 27.0927 94.3004 26.8098 93.3667 26.244C92.4329 25.6782 91.7213 24.9115 91.2359 23.9439C90.7505 22.9763 90.5078 21.8898 90.5078 20.6803C90.5078 19.725 90.6641 18.8353 90.9726 18.0112C91.2811 17.1871 91.7213 16.4696 92.2889 15.8505C92.8566 15.2355 93.5189 14.7558 94.2757 14.4073C95.0326 14.0629 95.8594 13.8866 96.7561 13.8866C97.9408 13.8866 98.8993 14.0424 99.6232 14.3499C100.347 14.6574 100.886 15.0141 101.24 15.4159C101.491 15.7439 101.639 16.1621 101.676 16.6787C101.713 17.1953 101.733 17.7283 101.733 18.2818H101.166C100.927 17.1379 100.487 16.2605 99.8495 15.6496C99.2119 15.0387 98.3686 14.7353 97.3238 14.7353C96.5546 14.7353 95.8553 14.9116 95.2218 15.2642C94.5925 15.6168 94.0906 16.2236 93.7163 17.0846C93.342 17.9456 93.1569 19.1428 93.1569 20.6762C93.1569 21.3937 93.2309 22.0825 93.3831 22.7508C93.5353 23.4191 93.778 24.0136 94.1112 24.5425C94.4444 25.0714 94.8763 25.4855 95.3987 25.7889C95.9211 26.0923 96.5628 26.2399 97.3197 26.2399C98.1917 26.2399 98.998 26.0103 99.7425 25.5511C100.487 25.0919 101.088 24.4236 101.54 23.5421L102.202 24.0505C101.61 25.096 100.882 25.8627 100.026 26.3506C99.1666 26.8426 98.0766 27.0845 96.752 27.0845V27.0927Z" fill="#FFFDF8"/>
<path d="M106.419 26.9041C105.37 26.9041 104.572 26.6663 104.025 26.1989C103.478 25.7274 103.202 25.1124 103.202 24.358C103.202 23.7553 103.342 23.2428 103.63 22.8205C103.914 22.3982 104.428 22.0784 105.172 21.857C105.917 21.6356 106.962 21.5249 108.315 21.5249H108.599C108.599 20.3933 108.443 19.6061 108.126 19.1674C107.809 18.7287 107.369 18.5073 106.801 18.5073C106.374 18.5073 105.987 18.6139 105.646 18.8271C105.304 19.0403 105.057 19.4995 104.909 20.2047H103.869C103.869 19.8767 103.889 19.5446 103.934 19.2043C103.98 18.864 104.115 18.5688 104.342 18.3187C104.568 18.0686 104.942 17.8923 105.469 17.798C105.991 17.7037 106.563 17.6586 107.18 17.6586C108.414 17.6586 109.372 17.9866 110.047 18.6385C110.722 19.2945 111.059 20.2867 111.059 21.6192V26.7114H109.45L108.788 25.8627H108.694C108.632 25.9652 108.554 26.0595 108.455 26.1456C108.36 26.2317 108.262 26.3137 108.163 26.3916C107.986 26.531 107.752 26.6499 107.464 26.7483C107.172 26.8508 106.826 26.9 106.423 26.9L106.419 26.9041ZM106.987 25.9611C107.279 25.9611 107.517 25.8996 107.715 25.7725C107.912 25.6454 108.077 25.5101 108.216 25.3584C108.381 25.1821 108.508 24.973 108.595 24.7352V22.3777H108.311C107.402 22.3777 106.752 22.5417 106.353 22.8697C105.954 23.1977 105.757 23.6938 105.757 24.358C105.757 24.8869 105.868 25.2846 106.086 25.5552C106.308 25.8258 106.608 25.9611 106.987 25.9611Z" fill="#FFFDF8"/>
<path d="M113.552 26.7155V20.3031C113.552 19.7373 113.478 19.2822 113.326 18.9378C113.173 18.5934 112.815 18.4171 112.248 18.4171H112.059V17.8513H113.93C114.309 17.8513 114.638 17.9046 114.913 18.0112C115.189 18.1178 115.399 18.3023 115.539 18.5688H115.613C115.839 18.3679 116.151 18.167 116.55 17.9661C116.949 17.7652 117.431 17.6627 117.998 17.6627C118.48 17.6627 118.895 17.7283 119.249 17.8595C119.603 17.9907 119.895 18.1424 120.129 18.3105C120.364 18.4786 120.524 18.6221 120.61 18.7369C120.861 18.4622 121.19 18.2121 121.594 17.9907C121.997 17.7693 122.564 17.6627 123.297 17.6627C124.341 17.6627 125.156 17.9374 125.736 18.4827C126.316 19.028 126.608 19.9136 126.608 21.1313V26.7155H124.148V21.1149C124.148 20.1965 124.004 19.5487 123.712 19.1715C123.42 18.7943 123.062 18.6057 122.634 18.6057C122.281 18.6057 121.964 18.6754 121.68 18.8148C121.396 18.9542 121.174 19.1223 121.009 19.3232C121.034 19.3724 121.059 19.4339 121.083 19.5036C121.108 19.5733 121.133 19.6512 121.158 19.7414C121.195 19.8808 121.232 20.0653 121.26 20.299C121.293 20.5327 121.31 20.8115 121.31 21.1395V26.7237H118.85V21.1231C118.85 20.2047 118.706 19.5569 118.414 19.1797C118.122 18.8025 117.764 18.6139 117.336 18.6139C117.044 18.6139 116.76 18.7 116.485 18.8681C116.209 19.0362 116.003 19.2043 115.88 19.3683L115.938 19.6307C115.962 19.7168 115.983 19.8275 115.995 19.9505C116.007 20.0776 116.016 20.2129 116.016 20.3646V26.7196H113.556L113.552 26.7155Z" fill="#FFFDF8"/>
<path d="M129.183 30.2989V20.3031C129.183 19.7373 129.109 19.2822 128.956 18.9378C128.804 18.5934 128.446 18.4171 127.879 18.4171H127.689V17.8513H129.561C129.989 17.8513 130.326 17.9087 130.573 18.0194C130.82 18.1342 131.013 18.3392 131.149 18.6426C131.375 18.4417 131.696 18.2285 132.116 18.003C132.531 17.7775 133.07 17.6627 133.724 17.6627C134.608 17.6627 135.34 17.8677 135.929 18.2777C136.517 18.6877 136.957 19.2412 137.253 19.9382C137.549 20.6352 137.697 21.4183 137.697 22.2875C137.697 23.1567 137.549 23.9234 137.253 24.6245C136.957 25.3297 136.509 25.8873 135.908 26.2932C135.308 26.7032 134.551 26.9082 133.629 26.9082C133.313 26.9082 133.037 26.8795 132.798 26.8221C132.56 26.7647 132.35 26.6991 132.173 26.6253C131.972 26.5515 131.795 26.4572 131.642 26.3424V30.303H129.183V30.2989ZM133.251 26.0554C133.732 26.0554 134.106 25.8914 134.378 25.5634C134.649 25.2354 134.843 24.7885 134.966 24.2145C135.085 23.6405 135.147 22.9968 135.147 22.2834C135.147 21.57 135.085 20.9058 134.966 20.34C134.847 19.7742 134.658 19.3273 134.398 18.9993C134.139 18.6713 133.79 18.5073 133.35 18.5073C132.868 18.5073 132.486 18.5934 132.194 18.7697C131.902 18.946 131.675 19.1141 131.511 19.2781L131.568 19.5405C131.618 19.6922 131.642 19.9054 131.642 20.1801V25.4814C131.782 25.5962 131.935 25.6905 132.095 25.7643C132.235 25.8381 132.399 25.9037 132.597 25.9611C132.79 26.0185 133.008 26.0472 133.251 26.0472V26.0554Z" fill="#FFFDF8"/>
<path d="M143.221 26.9041C142.037 26.9041 141.156 26.6294 140.58 26.0841C140.005 25.5388 139.721 24.6532 139.721 23.4355V20.3031C139.721 19.7373 139.643 19.2822 139.482 18.9378C139.322 18.5934 138.964 18.4171 138.396 18.4171H138.207V17.8513H140.478C141.148 17.8513 141.597 18.0276 141.831 18.3802C142.065 18.7328 142.181 19.3724 142.181 20.3031V23.4519C142.181 24.4195 142.32 25.096 142.596 25.4814C142.872 25.8668 143.271 26.0554 143.789 26.0554C144.081 26.0554 144.328 25.9939 144.538 25.8668C144.747 25.7397 144.92 25.6044 145.06 25.4527C145.146 25.3666 145.229 25.2723 145.295 25.1698C145.364 25.0673 145.43 24.9566 145.492 24.8295V17.8513H147.952V26.7155H146.343L145.681 25.8668H145.587C145.41 26.0554 145.2 26.2317 144.961 26.3957C144.76 26.5351 144.513 26.654 144.225 26.7524C143.933 26.8549 143.6 26.9041 143.221 26.9041Z" fill="#FFFDF8"/>
<path d="M153.419 26.904C152.638 26.904 151.996 26.8343 151.498 26.6949C151.001 26.5555 150.626 26.3669 150.371 26.1291C150.145 25.9159 150.013 25.6084 149.972 25.2066C149.931 24.8048 149.915 24.3661 149.915 23.8864H150.577C150.68 24.4891 150.923 25.0016 151.313 25.4239C151.704 25.8462 152.28 26.0553 153.037 26.0553C153.744 26.0553 154.234 25.9323 154.514 25.6863C154.789 25.4403 154.929 25.1369 154.929 24.772C154.929 24.4071 154.764 24.116 154.435 23.8946C154.106 23.6732 153.703 23.4559 153.226 23.2427L152.243 22.8286C151.486 22.5006 150.894 22.1316 150.466 21.7175C150.038 21.3034 149.824 20.7868 149.824 20.1718C149.824 19.3559 150.166 18.7327 150.844 18.3063C151.527 17.8799 152.383 17.6667 153.419 17.6667C154.201 17.6667 154.843 17.7364 155.34 17.8758C155.838 18.0152 156.212 18.2038 156.467 18.4416C156.694 18.6548 156.825 18.9623 156.866 19.3641C156.903 19.7659 156.924 20.2087 156.924 20.6843H156.262C156.159 20.0816 155.916 19.5691 155.525 19.1468C155.135 18.7245 154.559 18.5154 153.802 18.5154C153.234 18.5154 152.823 18.6384 152.572 18.8844C152.321 19.1304 152.194 19.4338 152.194 19.7987C152.194 20.139 152.313 20.4137 152.551 20.6187C152.79 20.8278 153.119 21.0164 153.535 21.1927L154.67 21.6642C155.542 22.0291 156.196 22.4104 156.636 22.804C157.076 23.1976 157.298 23.7306 157.298 24.3989C157.298 25.2148 156.932 25.838 156.2 26.2644C155.468 26.6908 154.542 26.904 153.419 26.904Z" fill="#FFFDF8"/>
</g>
<defs>
<clipPath id="clip0_238_1049">
<rect width="200" height="41" fill="white"/>
</clipPath>
</defs>
</svg>
